Normalized EMG Linear Envelopes
nRows=223
nColumns=4

endheader
time	 med_gas_r	  soleus_r	 tib_ant_r	
2.69456	  0.002578	  0.004473	  0.001274	
2.72782	  0.002735	  0.004496	  0.001326	
2.76109	  0.002866	  0.004531	  0.001372	
2.79435	  0.002951	  0.004579	  0.001408	
2.82762	  0.002986	  0.004638	  0.001431	
2.86089	  0.002981	  0.004706	  0.001441	
2.89415	  0.002955	  0.004781	  0.001443	
2.92742	  0.002915	  0.004859	  0.001439	
2.96069	  0.002863	  0.004931	  0.001436	
2.99395	  0.002794	  0.004989	  0.001436	
3.02722	  0.002708	  0.005023	  0.001440	
3.06048	  0.002616	  0.005031	  0.001448	
3.09375	  0.002532	  0.005010	  0.001457	
3.12702	  0.002474	  0.004965	  0.001463	
3.16028	  0.002452	  0.004906	  0.001467	
3.19355	  0.002466	  0.004844	  0.001470	
3.22681	  0.002509	  0.004793	  0.001473	
3.26008	  0.002566	  0.004760	  0.001475	
3.29335	  0.002618	  0.004746	  0.001474	
3.32661	  0.002651	  0.004745	  0.001471	
3.35988	  0.002660	  0.004746	  0.001468	
3.39315	  0.002649	  0.004739	  0.001469	
3.42641	  0.002630	  0.004721	  0.001476	
3.45968	  0.002617	  0.004692	  0.001485	
3.49294	  0.002619	  0.004663	  0.001494	
3.52621	  0.002638	  0.004645	  0.001500	
3.55948	  0.002670	  0.004652	  0.001502	
3.59274	  0.002712	  0.004689	  0.001504	
3.62601	  0.002765	  0.004755	  0.001506	
3.65927	  0.002835	  0.004839	  0.001509	
3.69254	  0.002934	  0.004929	  0.001513	
3.72581	  0.003075	  0.005018	  0.001516	
3.75907	  0.003273	  0.005109	  0.001519	
3.79234	  0.003536	  0.005205	  0.001522	
3.8256	  0.003852	  0.005304	  0.001525	
3.85887	  0.004178	  0.005397	  0.001530	
3.89214	  0.004440	  0.005461	  0.001537	
3.9254	  0.004561	  0.005473	  0.001546	
3.95867	  0.004502	  0.005423	  0.001557	
3.99194	  0.004284	  0.005314	  0.001568	
4.0252	  0.003981	  0.005168	  0.001574	
4.05847	  0.003676	  0.005013	  0.001572	
4.09173	  0.003423	  0.004874	  0.001560	
4.125	  0.003238	  0.004764	  0.001538	
4.15827	  0.003108	  0.004691	  0.001510	
4.19153	  0.003015	  0.004658	  0.001482	
4.2248	  0.002946	  0.004664	  0.001462	
4.25806	  0.002895	  0.004704	  0.001454	
4.29133	  0.002855	  0.004761	  0.001463	
4.3246	  0.002821	  0.004817	  0.001495	
4.35786	  0.002784	  0.004852	  0.001559	
4.39113	  0.002737	  0.004854	  0.001663	
4.4244	  0.002678	  0.004822	  0.001814	
4.45766	  0.002610	  0.004765	  0.002013	
4.49093	  0.002544	  0.004698	  0.002249	
4.52419	  0.002494	  0.004639	  0.002499	
4.55746	  0.002469	  0.004599	  0.002716	
4.59073	  0.002477	  0.004577	  0.002828	
4.62399	  0.002516	  0.004560	  0.002722	
4.65726	  0.002576	  0.004523	  0.002241	
4.69052	  0.002639	  0.004435	  0.001195	
4.72379	  0.002678	  0.004256	 -0.000615	
4.75706	  0.002668	  0.003939	 -0.003355	
4.79032	  0.002591	  0.003435	 -0.007116	
4.82359	  0.002442	  0.002703	 -0.011843	
4.85685	  0.002231	  0.001736	 -0.017199	
4.89012	  0.001989	  0.000604	 -0.022366	
4.92339	  0.001771	 -0.000501	 -0.025854	
4.95665	  0.001661	 -0.001241	 -0.025431	
4.98992	  0.001772	 -0.001137	 -0.018161	
5.02319	  0.002244	  0.000436	 -0.000447	
5.05645	  0.003246	  0.004271	  0.031907	
5.08972	  0.004970	  0.011323	  0.083240	
5.12298	  0.007594	  0.022555	  0.156626	
5.15625	  0.011196	  0.038585	  0.251599	
5.18952	  0.015672	  0.059241	  0.362357	
5.22278	  0.020707	  0.083374	  0.478277	
5.25605	  0.025854	  0.109089	  0.587317	
5.28931	  0.030659	  0.134259	  0.680460	
5.32258	  0.034754	  0.156941	  0.754204	
5.35585	  0.037881	  0.175543	  0.809667	
5.38911	  0.039916	  0.188937	  0.849678	
5.42238	  0.040906	  0.196772	  0.876506	
5.45565	  0.041100	  0.199799	  0.891578	
5.48891	  0.040877	  0.199756	  0.896376	
5.52218	  0.040592	  0.198635	  0.893021	
5.55544	  0.040432	  0.197800	  0.884057	
5.58871	  0.040401	  0.197600	  0.871977	
5.62198	  0.040407	  0.197654	  0.858862	
5.65524	  0.040375	  0.197425	  0.846026	
5.68851	  0.040272	  0.196540	  0.833725	
5.72177	  0.040094	  0.194810	  0.821400	
5.75504	  0.039842	  0.192228	  0.808531	
5.78831	  0.039541	  0.189106	  0.795324	
5.82157	  0.039235	  0.186082	  0.782476	
5.85484	  0.038952	  0.183726	  0.770228	
5.8881	  0.038631	  0.181937	  0.757689	
5.92137	  0.038117	  0.179743	  0.743161	
5.95464	  0.037252	  0.175883	  0.725288	
5.9879	  0.036012	  0.169814	  0.704235	
6.02117	  0.034580	  0.162334	  0.682106	
6.05444	  0.033271	  0.155239	  0.662413	
6.0877	  0.032360	  0.150228	  0.648917	
6.12097	  0.031919	  0.147898	  0.644391	
6.15423	  0.031804	  0.147541	  0.649792	
6.1875	  0.031769	  0.147824	  0.664020	
6.22077	  0.031617	  0.147670	  0.684185	
6.25403	  0.031267	  0.146689	  0.706162	
6.2873	  0.030719	  0.144985	  0.725391	
6.32056	  0.030015	  0.142759	  0.738040	
6.35383	  0.029239	  0.140135	  0.742240	
6.3871	  0.028537	  0.137270	  0.738690	
6.42036	  0.028110	  0.134525	  0.730242	
6.45363	  0.028156	  0.132477	  0.720801	
6.4869	  0.028772	  0.131753	  0.714166	
6.52016	  0.029879	  0.132765	  0.713019	
6.55343	  0.031213	  0.135525	  0.718116	
6.58669	  0.032439	  0.139633	  0.728109	
6.61996	  0.033317	  0.144441	  0.740436	
6.65323	  0.033806	  0.149252	  0.752883	
6.68649	  0.034023	  0.153483	  0.764618	
6.71976	  0.034092	  0.156725	  0.775758	
6.75302	  0.034043	  0.158736	  0.785961	
6.78629	  0.033831	  0.159404	  0.793437	
6.81956	  0.033417	  0.158719	  0.795328	
6.85282	  0.032815	  0.156799	  0.789158	
6.88609	  0.032078	  0.153932	  0.774263	
6.91935	  0.031269	  0.150591	  0.752323	
6.95262	  0.030461	  0.147371	  0.726733	
6.98589	  0.029732	  0.144813	  0.701200	
7.01915	  0.029147	  0.143186	  0.678402	
7.05242	  0.028729	  0.142397	  0.659467	
7.08569	  0.028462	  0.142165	  0.644277	
7.11895	  0.028328	  0.142338	  0.631940	
7.15222	  0.028338	  0.143024	  0.621048	
7.18548	  0.028531	  0.144401	  0.610017	
7.21875	  0.028925	  0.146435	  0.597852	
7.25202	  0.029487	  0.148902	  0.584881	
7.28528	  0.030145	  0.151658	  0.572746	
7.31855	  0.030831	  0.154741	  0.563604	
7.35181	  0.031501	  0.158055	  0.559173	
7.38508	  0.032119	  0.160977	  0.560110	
7.41835	  0.032617	  0.162463	  0.565693	
7.45161	  0.032882	  0.161714	  0.573866	
7.48488	  0.032799	  0.158848	  0.581994	
7.51815	  0.032315	  0.154939	  0.588190	
7.55141	  0.031473	  0.151391	  0.592348	
7.58468	  0.030389	  0.149148	  0.596112	
7.61794	  0.029204	  0.148257	  0.601944	
7.65121	  0.028052	  0.148052	  0.612099	
7.68448	  0.027077	  0.147814	  0.627883	
7.71774	  0.026462	  0.147529	  0.649117	
7.75101	  0.026408	  0.148185	  0.673878	
7.78427	  0.027068	  0.151262	  0.699046	
7.81754	  0.028468	  0.157685	  0.721789	
7.85081	  0.030467	  0.166986	  0.741030	
7.88407	  0.032777	  0.177286	  0.757565	
7.91734	  0.035046	  0.186122	  0.772582	
7.9506	  0.036963	  0.191564	  0.786089	
7.98387	  0.038332	  0.192952	  0.796943	
8.01714	  0.039105	  0.190899	  0.804483	
8.0504	  0.039353	  0.186694	  0.809733	
8.08367	  0.039216	  0.181581	  0.814480	
8.11694	  0.038867	  0.176362	  0.818882	
8.1502	  0.038481	  0.171417	  0.820121	
8.18347	  0.038199	  0.166881	  0.813687	
8.21673	  0.038072	  0.162760	  0.796338	
8.25	  0.038039	  0.159008	  0.768406	
8.28327	  0.037968	  0.155650	  0.733919	
8.31653	  0.037743	  0.152892	  0.698727	
8.3498	  0.037334	  0.151030	  0.667936	
8.38306	  0.036797	  0.150169	  0.644069	
8.41633	  0.036219	  0.149984	  0.626820	
8.4496	  0.035652	  0.149790	  0.614287	
8.48286	  0.035111	  0.148940	  0.604736	
8.51613	  0.034604	  0.147255	  0.597761	
8.5494	  0.034177	  0.145166	  0.594307	
8.58266	  0.033923	  0.143488	  0.595808	
8.61593	  0.033952	  0.142990	  0.603172	
8.64919	  0.034346	  0.144057	  0.616243	
8.68246	  0.035115	  0.146644	  0.633851	
8.71573	  0.036183	  0.150473	  0.654127	
8.74899	  0.037417	  0.155271	  0.674967	
8.78226	  0.038685	  0.160855	  0.694738	
8.81552	  0.039911	  0.167024	  0.713095	
8.84879	  0.041073	  0.173393	  0.731120	
8.88206	  0.042149	  0.179329	  0.750262	
8.91532	  0.043075	  0.184060	  0.770768	
8.94859	  0.043761	  0.186953	  0.790984	
8.98185	  0.044150	  0.187804	  0.807979	
9.01512	  0.044267	  0.186950	  0.818596	
9.04839	  0.044190	  0.185056	  0.820016	
9.08165	  0.043996	  0.182715	  0.810089	
9.11492	  0.043716	  0.180163	  0.788153	
9.14819	  0.043335	  0.177305	  0.756122	
9.18145	  0.042826	  0.173922	  0.718659	
9.21472	  0.042188	  0.169816	  0.681733	
9.24798	  0.041460	  0.164884	  0.650423	
9.28125	  0.040726	  0.159267	  0.627509	
9.31452	  0.040092	  0.153598	  0.613612	
9.34778	  0.039658	  0.149045	  0.608202	
9.38105	  0.039493	  0.146889	  0.610442	
9.41431	  0.039628	  0.147853	  0.619463	
9.44758	  0.040067	  0.151690	  0.634432	
9.48085	  0.040791	  0.157398	  0.654509	
9.51411	  0.041746	  0.163787	  0.678383	
9.54738	  0.042791	  0.169906	  0.703461	
9.58065	  0.043669	  0.175058	  0.725735	
9.61391	  0.044074	  0.178669	  0.741168	
9.64718	  0.043790	  0.180316	  0.747840	
9.68044	  0.042794	  0.179867	  0.746824	
9.71371	  0.041222	  0.177441	  0.740615	
9.74698	  0.039244	  0.173093	  0.730238	
9.78024	  0.036952	  0.166518	  0.713424	
9.81351	  0.034341	  0.157121	  0.685214	
9.84677	  0.031357	  0.144377	  0.640337	
9.88004	  0.027941	  0.128207	  0.575756	
9.91331	  0.024071	  0.109136	  0.492212	
9.94657	  0.019797	  0.088274	  0.394393	
9.97984	  0.015267	  0.067103	  0.289708	
10.0131	  0.010706	  0.047089	  0.186033	
10.0464	  0.006337	  0.029232	  0.089399	
10.0796	  0.002314	  0.013844	  0.002896	
